<?xml version="1.0" encoding="UTF-8"?>
<svg width="1400" height="900" viewBox="0 0 1400 900" fill="none" xmlns="http://www.w3.org/2000/svg">
  <defs>
    <linearGradient id="bg" x1="0" y1="0" x2="1" y2="1">
      <stop offset="0%" stop-color="#EEF2FF" />
      <stop offset="100%" stop-color="#F8FAFC" />
    </linearGradient>
    <filter id="cardShadow" x="-20%" y="-20%" width="140%" height="140%">
      <feDropShadow dx="0" dy="18" stdDeviation="20" flood-color="#0F172A" flood-opacity="0.15" />
    </filter>
  </defs>
  <rect width="1400" height="900" fill="url(#bg)" />
  <rect x="60" y="40" width="1280" height="90" rx="18" fill="#0F172A" />
  <text x="100" y="92" font-size="28" font-family="Inter, sans-serif" fill="#F8FAFC">TypeScript Code Assistant</text>
  <text x="100" y="124" font-size="14" font-family="Inter, sans-serif" fill="#94A3B8">Premium analysis workspace</text>
  <text x="100" y="190" font-size="28" font-family="Inter, sans-serif" fill="#0F172A">Quick Fix Diff</text>
  
  <rect x="60" y="220" width="600" height="520" rx="20" fill="#FFFFFF" filter="url(#cardShadow)" />
  <rect x="740" y="220" width="600" height="520" rx="20" fill="#FFFFFF" filter="url(#cardShadow)" />
  <text x="100" y="260" font-size="18" font-family="Inter, sans-serif" fill="#0F172A">Before</text>
  <text x="780" y="260" font-size="18" font-family="Inter, sans-serif" fill="#0F172A">After</text>
  <rect x="100" y="300" width="520" height="20" rx="8" fill="#F1F5F9" />
  <rect x="100" y="330" width="480" height="20" rx="8" fill="#F1F5F9" />
  <rect x="100" y="360" width="440" height="20" rx="8" fill="#FEE2E2" />
  <rect x="780" y="300" width="520" height="20" rx="8" fill="#F1F5F9" />
  <rect x="780" y="330" width="480" height="20" rx="8" fill="#DCFCE7" />
  <rect x="780" y="360" width="440" height="20" rx="8" fill="#DCFCE7" />
  <rect x="100" y="420" width="520" height="200" rx="12" fill="#0F172A" />
  <rect x="780" y="420" width="520" height="200" rx="12" fill="#0F172A" />

</svg>