<?xml version="1.0" encoding="UTF-8"?>
<svg width="1400" height="900" viewBox="0 0 1400 900" fill="none" xmlns="http://www.w3.org/2000/svg">
  <defs>
    <linearGradient id="bg" x1="0" y1="0" x2="1" y2="1">
      <stop offset="0%" stop-color="#EEF2FF" />
      <stop offset="100%" stop-color="#F8FAFC" />
    </linearGradient>
    <filter id="cardShadow" x="-20%" y="-20%" width="140%" height="140%">
      <feDropShadow dx="0" dy="18" stdDeviation="20" flood-color="#0F172A" flood-opacity="0.15" />
    </filter>
  </defs>
  <rect width="1400" height="900" fill="url(#bg)" />
  <rect x="60" y="40" width="1280" height="90" rx="18" fill="#0F172A" />
  <text x="100" y="92" font-size="28" font-family="Inter, sans-serif" fill="#F8FAFC">TypeScript Code Assistant</text>
  <text x="100" y="124" font-size="14" font-family="Inter, sans-serif" fill="#94A3B8">Premium analysis workspace</text>
  <text x="100" y="190" font-size="28" font-family="Inter, sans-serif" fill="#0F172A">Editor Overview</text>
  
  <rect x="60" y="220" width="880" height="520" rx="20" fill="#0B1120" filter="url(#cardShadow)" />
  <rect x="980" y="220" width="360" height="520" rx="20" fill="#FFFFFF" filter="url(#cardShadow)" />
  <rect x="100" y="260" width="320" height="16" rx="8" fill="#1E293B" />
  <rect x="100" y="290" width="420" height="16" rx="8" fill="#1E293B" />
  <rect x="100" y="320" width="520" height="16" rx="8" fill="#1E293B" />
  <rect x="1020" y="260" width="200" height="16" rx="8" fill="#E2E8F0" />
  <rect x="1020" y="300" width="280" height="80" rx="12" fill="#F8FAFC" stroke="#E2E8F0" />
  <text x="1040" y="340" font-size="12" font-family="Inter, sans-serif" fill="#1D4ED8">NO-VAR</text>
  <text x="1040" y="360" font-size="12" font-family="Inter, sans-serif" fill="#475569">Replace var with const</text>
  <rect x="1020" y="400" width="280" height="80" rx="12" fill="#F8FAFC" stroke="#E2E8F0" />
  <text x="1040" y="440" font-size="12" font-family="Inter, sans-serif" fill="#B45309">PREFER-CONST</text>
  <text x="1040" y="460" font-size="12" font-family="Inter, sans-serif" fill="#475569">Lock in immutable bindings</text>

</svg>